<svg id="svg" version="1.1" xmlns="http://www.w3.org/2000/svg" xmlns:xlink="http://www.w3.org/1999/xlink" width="400" height="400" viewBox="0, 0, 400,400"><g id="svgg"><path id="path0" d="M124.000 4.788 L 124.000 9.577 105.614 9.688 C 89.898 9.784,87.143 9.887,86.645 10.400 C 86.190 10.869,86.000 12.941,85.777 19.900 L 85.491 28.800 77.022 28.800 C 65.941 28.800,67.030 27.735,66.879 38.715 L 66.757 47.496 57.965 47.676 C 46.788 47.905,47.905 46.788,47.676 57.965 L 47.496 66.757 38.715 66.879 C 27.735 67.030,28.800 65.941,28.800 77.022 L 28.800 85.491 19.900 85.777 C 12.941 86.000,10.869 86.190,10.400 86.645 C 9.887 87.143,9.784 89.898,9.688 105.614 L 9.577 124.000 4.788 124.000 L 0.000 124.000 0.000 200.000 L 0.000 276.000 4.788 276.000 L 9.577 276.000 9.688 294.386 C 9.784 310.102,9.887 312.857,10.400 313.355 C 10.869 313.810,12.941 314.000,19.900 314.223 L 28.800 314.509 28.800 322.978 C 28.800 334.059,27.735 332.970,38.715 333.121 L 47.496 333.243 47.676 342.035 C 47.905 353.212,46.788 352.095,57.965 352.324 L 66.757 352.504 66.879 361.285 C 67.030 372.265,65.941 371.200,77.022 371.200 L 85.491 371.200 85.777 380.100 C 86.000 387.059,86.190 389.131,86.645 389.600 C 87.143 390.113,89.898 390.216,105.614 390.312 L 124.000 390.423 124.000 395.212 L 124.000 400.000 200.000 400.000 L 276.000 400.000 276.000 395.212 L 276.000 390.423 294.386 390.312 C 310.102 390.216,312.857 390.113,313.355 389.600 C 313.810 389.131,314.000 387.059,314.223 380.100 L 314.509 371.200 322.978 371.200 C 334.059 371.200,332.970 372.265,333.121 361.285 L 333.243 352.504 342.035 352.324 C 353.212 352.095,352.095 353.212,352.324 342.035 L 352.504 333.243 361.285 333.121 C 372.265 332.970,371.200 334.059,371.200 322.978 L 371.200 314.509 380.100 314.223 C 387.059 314.000,389.131 313.810,389.600 313.355 C 390.113 312.857,390.216 310.102,390.312 294.386 L 390.423 276.000 395.212 276.000 L 400.000 276.000 400.000 200.000 L 400.000 124.000 395.212 124.000 L 390.423 124.000 390.312 105.614 C 390.216 89.898,390.113 87.143,389.600 86.645 C 389.131 86.190,387.059 86.000,380.100 85.777 L 371.200 85.491 371.200 77.022 C 371.200 65.941,372.265 67.030,361.285 66.879 L 352.504 66.757 352.324 57.965 C 352.095 46.788,353.212 47.905,342.035 47.676 L 333.243 47.496 333.121 38.715 C 332.970 27.735,334.059 28.800,322.978 28.800 L 314.509 28.800 314.223 19.900 C 314.000 12.941,313.810 10.869,313.355 10.400 C 312.857 9.887,310.102 9.784,294.386 9.688 L 276.000 9.577 276.000 4.788 L 276.000 0.000 200.000 0.000 L 124.000 0.000 124.000 4.788 " stroke="none" fill="#040404" fill-rule="evenodd"></path><path id="path1" d="" stroke="none" fill="#080404" fill-rule="evenodd"></path></g></svg>