<svg id="svg" version="1.1" xmlns="http://www.w3.org/2000/svg" xmlns:xlink="http://www.w3.org/1999/xlink" width="400" height="400" viewBox="0, 0, 400,400"><g id="svgg"><path id="path0" d="M140.998 19.920 C 137.289 21.494,134.884 24.013,133.985 27.268 C 133.043 30.682,128.628 35.845,125.116 37.641 C 123.778 38.325,122.667 38.400,113.849 38.400 C 102.937 38.400,101.674 38.646,98.861 41.325 C 97.684 42.445,95.600 46.244,95.600 47.269 C 95.600 50.279,86.138 58.400,82.632 58.400 C 81.233 58.400,77.853 62.429,76.860 65.279 C 75.036 70.515,70.515 75.036,65.279 76.860 C 62.429 77.853,58.400 81.233,58.400 82.632 C 58.400 86.138,50.279 95.600,47.269 95.600 C 46.244 95.600,42.445 97.684,41.325 98.861 C 38.646 101.674,38.400 102.937,38.400 113.849 C 38.400 123.053,38.349 123.731,37.545 125.308 C 36.275 127.796,32.184 131.645,29.400 132.968 C 28.080 133.596,26.254 134.460,25.342 134.888 C 23.160 135.913,21.496 137.583,20.340 139.908 L 19.400 141.800 19.400 200.000 L 19.400 258.200 20.340 260.092 C 21.496 262.417,23.160 264.087,25.342 265.112 C 26.254 265.540,28.080 266.404,29.400 267.032 C 32.184 268.355,36.275 272.204,37.545 274.692 C 38.349 276.269,38.400 276.947,38.400 286.151 C 38.400 297.063,38.646 298.326,41.325 301.139 C 42.445 302.316,46.244 304.400,47.269 304.400 C 50.279 304.400,58.400 313.862,58.400 317.368 C 58.400 318.767,62.429 322.147,65.279 323.140 C 70.515 324.964,75.036 329.485,76.860 334.721 C 77.853 337.571,81.233 341.600,82.632 341.600 C 86.138 341.600,95.600 349.721,95.600 352.731 C 95.600 353.756,97.684 357.555,98.861 358.675 C 101.674 361.354,102.937 361.600,113.849 361.600 C 123.053 361.600,123.731 361.651,125.308 362.455 C 127.796 363.725,131.645 367.816,132.968 370.600 C 133.596 371.920,134.460 373.746,134.888 374.658 C 135.913 376.840,137.583 378.504,139.908 379.660 L 141.800 380.600 200.000 380.600 L 258.200 380.600 260.092 379.660 C 262.417 378.504,264.087 376.840,265.112 374.658 C 265.540 373.746,266.404 371.920,267.032 370.600 C 268.355 367.816,272.204 363.725,274.692 362.455 C 276.269 361.651,276.947 361.600,286.151 361.600 C 297.063 361.600,298.326 361.354,301.139 358.675 C 302.316 357.555,304.400 353.756,304.400 352.731 C 304.400 349.721,313.862 341.600,317.368 341.600 C 318.767 341.600,322.147 337.571,323.140 334.721 C 324.964 329.485,329.485 324.964,334.721 323.140 C 337.571 322.147,341.600 318.767,341.600 317.368 C 341.600 313.862,349.721 304.400,352.731 304.400 C 353.756 304.400,357.555 302.316,358.675 301.139 C 361.354 298.326,361.600 297.063,361.600 286.151 C 361.600 276.947,361.651 276.269,362.455 274.692 C 363.725 272.204,367.816 268.355,370.600 267.032 C 371.920 266.404,373.746 265.540,374.658 265.112 C 376.840 264.087,378.504 262.417,379.660 260.092 L 380.600 258.200 380.600 200.000 L 380.600 141.800 379.660 139.908 C 378.504 137.583,376.840 135.913,374.658 134.888 C 373.746 134.460,371.920 133.596,370.600 132.968 C 367.816 131.645,363.725 127.796,362.455 125.308 C 361.651 123.731,361.600 123.053,361.600 113.849 C 361.600 102.937,361.354 101.674,358.675 98.861 C 357.555 97.684,353.756 95.600,352.731 95.600 C 349.721 95.600,341.600 86.138,341.600 82.632 C 341.600 81.233,337.571 77.853,334.721 76.860 C 329.485 75.036,324.964 70.515,323.140 65.279 C 322.147 62.429,318.767 58.400,317.368 58.400 C 313.862 58.400,304.400 50.279,304.400 47.269 C 304.400 46.244,302.316 42.445,301.139 41.325 C 298.326 38.646,297.063 38.400,286.151 38.400 C 276.947 38.400,276.269 38.349,274.692 37.545 C 272.204 36.275,268.355 32.184,267.032 29.400 C 266.404 28.080,265.540 26.254,265.112 25.342 C 264.087 23.160,262.417 21.496,260.092 20.340 L 258.200 19.400 200.400 19.320 C 146.795 19.246,142.484 19.290,140.998 19.920 " stroke="none" fill="#2494f4" fill-rule="evenodd"></path><path id="path1" d="M124.000 4.788 L 124.000 9.577 105.614 9.688 C 89.898 9.784,87.143 9.887,86.645 10.400 C 86.190 10.869,86.000 12.941,85.777 19.900 L 85.491 28.800 77.022 28.800 C 65.941 28.800,67.030 27.735,66.879 38.715 L 66.757 47.496 57.965 47.676 C 46.788 47.905,47.905 46.788,47.676 57.965 L 47.496 66.757 38.715 66.879 C 27.735 67.030,28.800 65.941,28.800 77.022 L 28.800 85.491 19.900 85.777 C 12.941 86.000,10.869 86.190,10.400 86.645 C 9.887 87.143,9.784 89.898,9.688 105.614 L 9.577 124.000 4.788 124.000 L 0.000 124.000 0.000 200.000 L 0.000 276.000 4.788 276.000 L 9.577 276.000 9.688 294.386 C 9.784 310.102,9.887 312.857,10.400 313.355 C 10.869 313.810,12.941 314.000,19.900 314.223 L 28.800 314.509 28.800 322.978 C 28.800 334.059,27.735 332.970,38.715 333.121 L 47.496 333.243 47.676 342.035 C 47.905 353.212,46.788 352.095,57.965 352.324 L 66.757 352.504 66.879 361.285 C 67.030 372.265,65.941 371.200,77.022 371.200 L 85.491 371.200 85.777 380.100 C 86.000 387.059,86.190 389.131,86.645 389.600 C 87.143 390.113,89.898 390.216,105.614 390.312 L 124.000 390.423 124.000 395.212 L 124.000 400.000 200.000 400.000 L 276.000 400.000 276.000 395.212 L 276.000 390.423 294.386 390.312 C 310.102 390.216,312.857 390.113,313.355 389.600 C 313.810 389.131,314.000 387.059,314.223 380.100 L 314.509 371.200 322.978 371.200 C 334.059 371.200,332.970 372.265,333.121 361.285 L 333.243 352.504 342.035 352.324 C 353.212 352.095,352.095 353.212,352.324 342.035 L 352.504 333.243 361.285 333.121 C 372.265 332.970,371.200 334.059,371.200 322.978 L 371.200 314.509 380.100 314.223 C 387.059 314.000,389.131 313.810,389.600 313.355 C 390.113 312.857,390.216 310.102,390.312 294.386 L 390.423 276.000 395.212 276.000 L 400.000 276.000 400.000 200.000 L 400.000 124.000 395.212 124.000 L 390.423 124.000 390.312 105.614 C 390.216 89.898,390.113 87.143,389.600 86.645 C 389.131 86.190,387.059 86.000,380.100 85.777 L 371.200 85.491 371.200 77.022 C 371.200 65.941,372.265 67.030,361.285 66.879 L 352.504 66.757 352.324 57.965 C 352.095 46.788,353.212 47.905,342.035 47.676 L 333.243 47.496 333.121 38.715 C 332.970 27.735,334.059 28.800,322.978 28.800 L 314.509 28.800 314.223 19.900 C 314.000 12.941,313.810 10.869,313.355 10.400 C 312.857 9.887,310.102 9.784,294.386 9.688 L 276.000 9.577 276.000 4.788 L 276.000 0.000 200.000 0.000 L 124.000 0.000 124.000 4.788 M260.092 20.340 C 262.417 21.496,264.087 23.160,265.112 25.342 C 265.540 26.254,266.404 28.080,267.032 29.400 C 268.355 32.184,272.204 36.275,274.692 37.545 C 276.269 38.349,276.947 38.400,286.151 38.400 C 297.063 38.400,298.326 38.646,301.139 41.325 C 302.316 42.445,304.400 46.244,304.400 47.269 C 304.400 50.279,313.862 58.400,317.368 58.400 C 318.767 58.400,322.147 62.429,323.140 65.279 C 324.964 70.515,329.485 75.036,334.721 76.860 C 337.571 77.853,341.600 81.233,341.600 82.632 C 341.600 86.138,349.721 95.600,352.731 95.600 C 353.756 95.600,357.555 97.684,358.675 98.861 C 361.354 101.674,361.600 102.937,361.600 113.849 C 361.600 123.053,361.651 123.731,362.455 125.308 C 363.725 127.796,367.816 131.645,370.600 132.968 C 371.920 133.596,373.746 134.460,374.658 134.888 C 376.840 135.913,378.504 137.583,379.660 139.908 L 380.600 141.800 380.600 200.000 L 380.600 258.200 379.660 260.092 C 378.504 262.417,376.840 264.087,374.658 265.112 C 373.746 265.540,371.920 266.404,370.600 267.032 C 367.816 268.355,363.725 272.204,362.455 274.692 C 361.651 276.269,361.600 276.947,361.600 286.151 C 361.600 297.063,361.354 298.326,358.675 301.139 C 357.555 302.316,353.756 304.400,352.731 304.400 C 349.721 304.400,341.600 313.862,341.600 317.368 C 341.600 318.767,337.571 322.147,334.721 323.140 C 329.485 324.964,324.964 329.485,323.140 334.721 C 322.147 337.571,318.767 341.600,317.368 341.600 C 313.862 341.600,304.400 349.721,304.400 352.731 C 304.400 353.756,302.316 357.555,301.139 358.675 C 298.326 361.354,297.063 361.600,286.151 361.600 C 276.947 361.600,276.269 361.651,274.692 362.455 C 272.204 363.725,268.355 367.816,267.032 370.600 C 266.404 371.920,265.540 373.746,265.112 374.658 C 264.087 376.840,262.417 378.504,260.092 379.660 L 258.200 380.600 200.000 380.600 L 141.800 380.600 139.908 379.660 C 137.583 378.504,135.913 376.840,134.888 374.658 C 134.460 373.746,133.596 371.920,132.968 370.600 C 131.645 367.816,127.796 363.725,125.308 362.455 C 123.731 361.651,123.053 361.600,113.849 361.600 C 102.937 361.600,101.674 361.354,98.861 358.675 C 97.684 357.555,95.600 353.756,95.600 352.731 C 95.600 349.721,86.138 341.600,82.632 341.600 C 81.233 341.600,77.853 337.571,76.860 334.721 C 75.036 329.485,70.515 324.964,65.279 323.140 C 62.429 322.147,58.400 318.767,58.400 317.368 C 58.400 313.862,50.279 304.400,47.269 304.400 C 46.244 304.400,42.445 302.316,41.325 301.139 C 38.646 298.326,38.400 297.063,38.400 286.151 C 38.400 276.947,38.349 276.269,37.545 274.692 C 36.275 272.204,32.184 268.355,29.400 267.032 C 28.080 266.404,26.254 265.540,25.342 265.112 C 23.160 264.087,21.496 262.417,20.340 260.092 L 19.400 258.200 19.400 200.000 L 19.400 141.800 20.340 139.908 C 21.496 137.583,23.160 135.913,25.342 134.888 C 26.254 134.460,28.080 133.596,29.400 132.968 C 32.184 131.645,36.275 127.796,37.545 125.308 C 38.349 123.731,38.400 123.053,38.400 113.849 C 38.400 102.937,38.646 101.674,41.325 98.861 C 42.445 97.684,46.244 95.600,47.269 95.600 C 50.279 95.600,58.400 86.138,58.400 82.632 C 58.400 81.233,62.429 77.853,65.279 76.860 C 70.515 75.036,75.036 70.515,76.860 65.279 C 77.853 62.429,81.233 58.400,82.632 58.400 C 86.138 58.400,95.600 50.279,95.600 47.269 C 95.600 46.244,97.684 42.445,98.861 41.325 C 101.674 38.646,102.937 38.400,113.849 38.400 C 122.667 38.400,123.778 38.325,125.116 37.641 C 128.628 35.845,133.043 30.682,133.985 27.268 C 134.526 25.311,136.697 22.237,138.170 21.343 C 141.890 19.086,137.369 19.233,200.400 19.320 L 258.200 19.400 260.092 20.340 " stroke="none" fill="#040404" fill-rule="evenodd"></path></g></svg>