<svg id="svg" version="1.1" xmlns="http://www.w3.org/2000/svg" xmlns:xlink="http://www.w3.org/1999/xlink" width="400" height="400" viewBox="0, 0, 400,400"><g id="svgg"><path id="path0" d="M139.702 20.812 C 137.381 21.972,135.919 23.437,134.924 25.600 C 134.671 26.150,134.027 27.590,133.492 28.800 C 132.142 31.858,129.584 34.937,126.924 36.704 L 124.673 38.200 114.236 38.400 C 100.306 38.667,99.624 38.995,95.618 47.363 C 93.193 52.428,90.044 55.624,85.684 57.444 C 80.708 59.521,78.495 61.466,77.219 64.884 C 74.941 70.985,70.985 74.941,64.884 77.219 C 61.466 78.495,59.521 80.708,57.444 85.684 C 55.624 90.044,52.428 93.193,47.363 95.618 C 38.995 99.624,38.667 100.306,38.400 114.236 L 38.200 124.673 36.704 126.924 C 34.937 129.584,31.858 132.142,28.800 133.492 C 27.590 134.027,26.150 134.671,25.600 134.924 C 23.437 135.919,21.972 137.381,20.812 139.702 L 19.600 142.128 19.600 200.000 L 19.600 257.872 20.812 260.298 C 21.972 262.619,23.437 264.081,25.600 265.076 C 26.150 265.329,27.590 265.973,28.800 266.508 C 31.858 267.858,34.937 270.416,36.704 273.076 L 38.200 275.327 38.400 285.764 C 38.667 299.694,38.995 300.376,47.363 304.382 C 52.428 306.807,55.624 309.956,57.444 314.316 C 59.521 319.292,61.466 321.505,64.884 322.781 C 70.985 325.059,74.941 329.015,77.219 335.116 C 78.495 338.534,80.708 340.479,85.684 342.556 C 90.044 344.376,93.193 347.572,95.618 352.637 C 99.624 361.005,100.306 361.333,114.236 361.600 L 124.673 361.800 126.924 363.296 C 129.584 365.063,132.142 368.142,133.492 371.200 C 134.027 372.410,134.671 373.850,134.924 374.400 C 135.919 376.563,137.381 378.028,139.702 379.188 L 142.128 380.400 200.000 380.400 L 257.872 380.400 260.298 379.188 C 262.619 378.028,264.081 376.563,265.076 374.400 C 265.329 373.850,265.973 372.410,266.508 371.200 C 267.858 368.142,270.416 365.063,273.076 363.296 L 275.327 361.800 285.764 361.600 C 299.694 361.333,300.376 361.005,304.382 352.637 C 306.807 347.572,309.956 344.376,314.316 342.556 C 319.292 340.479,321.505 338.534,322.781 335.116 C 325.059 329.015,329.015 325.059,335.116 322.781 C 338.534 321.505,340.479 319.292,342.556 314.316 C 344.376 309.956,347.572 306.807,352.637 304.382 C 361.005 300.376,361.333 299.694,361.600 285.764 L 361.800 275.327 363.296 273.076 C 365.063 270.416,368.142 267.858,371.200 266.508 C 372.410 265.973,373.850 265.329,374.400 265.076 C 376.563 264.081,378.028 262.619,379.188 260.298 L 380.400 257.872 380.400 200.000 L 380.400 142.128 379.188 139.702 C 378.028 137.381,376.563 135.919,374.400 134.924 C 373.850 134.671,372.410 134.027,371.200 133.492 C 368.142 132.142,365.063 129.584,363.296 126.924 L 361.800 124.673 361.600 114.236 C 361.333 100.306,361.005 99.624,352.637 95.618 C 347.572 93.193,344.376 90.044,342.556 85.684 C 340.479 80.708,338.534 78.495,335.116 77.219 C 329.015 74.941,325.059 70.985,322.781 64.884 C 321.505 61.466,319.292 59.521,314.316 57.444 C 309.956 55.624,306.807 52.428,304.382 47.363 C 300.376 38.995,299.694 38.667,285.764 38.400 L 275.327 38.200 273.076 36.704 C 270.416 34.937,267.858 31.858,266.508 28.800 C 265.973 27.590,265.329 26.150,265.076 25.600 C 264.081 23.437,262.619 21.972,260.298 20.812 L 257.872 19.600 200.000 19.600 L 142.128 19.600 139.702 20.812 " stroke="none" fill="#4cac54" fill-rule="evenodd"></path><path id="path1" d="M124.000 4.788 L 124.000 9.577 105.614 9.688 C 89.898 9.784,87.143 9.887,86.645 10.400 C 86.190 10.869,86.000 12.941,85.777 19.900 L 85.491 28.800 77.022 28.800 C 65.941 28.800,67.030 27.735,66.879 38.715 L 66.757 47.496 57.965 47.676 C 46.788 47.905,47.905 46.788,47.676 57.965 L 47.496 66.757 38.715 66.879 C 27.735 67.030,28.800 65.941,28.800 77.022 L 28.800 85.491 19.900 85.777 C 12.941 86.000,10.869 86.190,10.400 86.645 C 9.887 87.143,9.784 89.898,9.688 105.614 L 9.577 124.000 4.788 124.000 L 0.000 124.000 0.000 200.000 L 0.000 276.000 4.788 276.000 L 9.577 276.000 9.688 294.386 C 9.784 310.102,9.887 312.857,10.400 313.355 C 10.869 313.810,12.941 314.000,19.900 314.223 L 28.800 314.509 28.800 322.978 C 28.800 334.059,27.735 332.970,38.715 333.121 L 47.496 333.243 47.676 342.035 C 47.905 353.212,46.788 352.095,57.965 352.324 L 66.757 352.504 66.879 361.285 C 67.030 372.265,65.941 371.200,77.022 371.200 L 85.491 371.200 85.777 380.100 C 86.000 387.059,86.190 389.131,86.645 389.600 C 87.143 390.113,89.898 390.216,105.614 390.312 L 124.000 390.423 124.000 395.212 L 124.000 400.000 200.000 400.000 L 276.000 400.000 276.000 395.212 L 276.000 390.423 294.386 390.312 C 310.102 390.216,312.857 390.113,313.355 389.600 C 313.810 389.131,314.000 387.059,314.223 380.100 L 314.509 371.200 322.978 371.200 C 334.059 371.200,332.970 372.265,333.121 361.285 L 333.243 352.504 342.035 352.324 C 353.212 352.095,352.095 353.212,352.324 342.035 L 352.504 333.243 361.285 333.121 C 372.265 332.970,371.200 334.059,371.200 322.978 L 371.200 314.509 380.100 314.223 C 387.059 314.000,389.131 313.810,389.600 313.355 C 390.113 312.857,390.216 310.102,390.312 294.386 L 390.423 276.000 395.212 276.000 L 400.000 276.000 400.000 200.000 L 400.000 124.000 395.212 124.000 L 390.423 124.000 390.312 105.614 C 390.216 89.898,390.113 87.143,389.600 86.645 C 389.131 86.190,387.059 86.000,380.100 85.777 L 371.200 85.491 371.200 77.022 C 371.200 65.941,372.265 67.030,361.285 66.879 L 352.504 66.757 352.324 57.965 C 352.095 46.788,353.212 47.905,342.035 47.676 L 333.243 47.496 333.121 38.715 C 332.970 27.735,334.059 28.800,322.978 28.800 L 314.509 28.800 314.223 19.900 C 314.000 12.941,313.810 10.869,313.355 10.400 C 312.857 9.887,310.102 9.784,294.386 9.688 L 276.000 9.577 276.000 4.788 L 276.000 0.000 200.000 0.000 L 124.000 0.000 124.000 4.788 M260.298 20.812 C 262.619 21.972,264.081 23.437,265.076 25.600 C 265.329 26.150,265.973 27.590,266.508 28.800 C 267.858 31.858,270.416 34.937,273.076 36.704 L 275.327 38.200 285.764 38.400 C 299.694 38.667,300.376 38.995,304.382 47.363 C 306.807 52.428,309.956 55.624,314.316 57.444 C 319.292 59.521,321.505 61.466,322.781 64.884 C 325.059 70.985,329.015 74.941,335.116 77.219 C 338.534 78.495,340.479 80.708,342.556 85.684 C 344.376 90.044,347.572 93.193,352.637 95.618 C 361.005 99.624,361.333 100.306,361.600 114.236 L 361.800 124.673 363.296 126.924 C 365.063 129.584,368.142 132.142,371.200 133.492 C 372.410 134.027,373.850 134.671,374.400 134.924 C 376.563 135.919,378.028 137.381,379.188 139.702 L 380.400 142.128 380.400 200.000 L 380.400 257.872 379.188 260.298 C 378.028 262.619,376.563 264.081,374.400 265.076 C 373.850 265.329,372.410 265.973,371.200 266.508 C 368.142 267.858,365.063 270.416,363.296 273.076 L 361.800 275.327 361.600 285.764 C 361.333 299.694,361.005 300.376,352.637 304.382 C 347.572 306.807,344.376 309.956,342.556 314.316 C 340.479 319.292,338.534 321.505,335.116 322.781 C 329.015 325.059,325.059 329.015,322.781 335.116 C 321.505 338.534,319.292 340.479,314.316 342.556 C 309.956 344.376,306.807 347.572,304.382 352.637 C 300.376 361.005,299.694 361.333,285.764 361.600 L 275.327 361.800 273.076 363.296 C 270.416 365.063,267.858 368.142,266.508 371.200 C 265.973 372.410,265.329 373.850,265.076 374.400 C 264.081 376.563,262.619 378.028,260.298 379.188 L 257.872 380.400 200.000 380.400 L 142.128 380.400 139.702 379.188 C 137.381 378.028,135.919 376.563,134.924 374.400 C 134.671 373.850,134.027 372.410,133.492 371.200 C 132.142 368.142,129.584 365.063,126.924 363.296 L 124.673 361.800 114.236 361.600 C 100.306 361.333,99.624 361.005,95.618 352.637 C 93.193 347.572,90.044 344.376,85.684 342.556 C 80.708 340.479,78.495 338.534,77.219 335.116 C 74.941 329.015,70.985 325.059,64.884 322.781 C 61.466 321.505,59.521 319.292,57.444 314.316 C 55.624 309.956,52.428 306.807,47.363 304.382 C 38.995 300.376,38.667 299.694,38.400 285.764 L 38.200 275.327 36.704 273.076 C 34.937 270.416,31.858 267.858,28.800 266.508 C 27.590 265.973,26.150 265.329,25.600 265.076 C 23.437 264.081,21.972 262.619,20.812 260.298 L 19.600 257.872 19.600 200.000 L 19.600 142.128 20.812 139.702 C 21.972 137.381,23.437 135.919,25.600 134.924 C 26.150 134.671,27.590 134.027,28.800 133.492 C 31.858 132.142,34.937 129.584,36.704 126.924 L 38.200 124.673 38.400 114.236 C 38.667 100.306,38.995 99.624,47.363 95.618 C 52.428 93.193,55.624 90.044,57.444 85.684 C 59.521 80.708,61.466 78.495,64.884 77.219 C 70.985 74.941,74.941 70.985,77.219 64.884 C 78.495 61.466,80.708 59.521,85.684 57.444 C 90.044 55.624,93.193 52.428,95.618 47.363 C 99.624 38.995,100.306 38.667,114.236 38.400 L 124.673 38.200 126.924 36.704 C 129.584 34.937,132.142 31.858,133.492 28.800 C 134.027 27.590,134.671 26.150,134.924 25.600 C 135.919 23.437,137.381 21.972,139.702 20.812 L 142.128 19.600 200.000 19.600 L 257.872 19.600 260.298 20.812 " stroke="none" fill="#040404" fill-rule="evenodd"></path></g></svg>