<svg id="svg" version="1.1" xmlns="http://www.w3.org/2000/svg" xmlns:xlink="http://www.w3.org/1999/xlink" width="400" height="400" viewBox="0, 0, 400,400"><g id="svgg"><path id="path0" d="M140.600 20.193 C 137.640 21.395,135.298 23.829,134.231 26.812 C 132.673 31.166,130.136 34.410,126.233 37.038 L 124.211 38.400 114.297 38.400 L 104.382 38.400 101.871 39.539 C 98.780 40.940,97.349 42.604,95.909 46.471 C 93.991 51.621,89.366 56.247,84.491 57.893 C 80.696 59.174,78.876 60.800,77.434 64.200 C 74.244 71.717,71.717 74.244,64.200 77.434 C 60.800 78.876,59.174 80.696,57.893 84.491 C 56.247 89.366,51.621 93.991,46.471 95.909 C 42.604 97.349,40.940 98.780,39.539 101.871 L 38.400 104.382 38.400 114.297 L 38.400 124.211 37.038 126.233 C 34.398 130.153,31.146 132.690,26.785 134.231 C 23.804 135.284,21.159 137.910,20.052 140.915 L 19.200 143.230 19.200 200.000 L 19.200 256.770 20.052 259.085 C 21.159 262.090,23.804 264.716,26.785 265.769 C 31.146 267.310,34.398 269.847,37.038 273.767 L 38.400 275.789 38.400 285.703 L 38.400 295.618 39.539 298.129 C 40.940 301.220,42.604 302.651,46.471 304.091 C 51.621 306.009,56.247 310.634,57.893 315.509 C 59.174 319.304,60.800 321.124,64.200 322.566 C 71.717 325.756,74.244 328.283,77.434 335.800 C 78.876 339.200,80.696 340.826,84.491 342.107 C 89.366 343.753,93.991 348.379,95.909 353.529 C 97.349 357.396,98.780 359.060,101.871 360.461 L 104.382 361.600 114.297 361.600 L 124.211 361.600 126.233 362.962 C 130.153 365.602,132.690 368.854,134.231 373.215 C 135.284 376.196,137.910 378.841,140.915 379.948 L 143.230 380.800 200.000 380.800 L 256.770 380.800 259.085 379.948 C 262.090 378.841,264.716 376.196,265.769 373.215 C 267.310 368.854,269.847 365.602,273.767 362.962 L 275.789 361.600 285.703 361.600 L 295.618 361.600 298.129 360.461 C 301.220 359.060,302.651 357.396,304.091 353.529 C 306.009 348.379,310.634 343.753,315.509 342.107 C 319.304 340.826,321.124 339.200,322.566 335.800 C 325.756 328.283,328.283 325.756,335.800 322.566 C 339.200 321.124,340.826 319.304,342.107 315.509 C 343.753 310.634,348.379 306.009,353.529 304.091 C 357.396 302.651,359.060 301.220,360.461 298.129 L 361.600 295.618 361.600 285.703 L 361.600 275.789 362.962 273.767 C 365.602 269.847,368.854 267.310,373.215 265.769 C 376.196 264.716,378.841 262.090,379.948 259.085 L 380.800 256.770 380.800 200.000 L 380.800 143.230 379.948 140.915 C 378.841 137.910,376.196 135.284,373.215 134.231 C 368.854 132.690,365.602 130.153,362.962 126.233 L 361.600 124.211 361.600 114.297 L 361.600 104.382 360.461 101.871 C 359.060 98.780,357.396 97.349,353.529 95.909 C 348.379 93.991,343.753 89.366,342.107 84.491 C 340.826 80.696,339.200 78.876,335.800 77.434 C 328.283 74.244,325.756 71.717,322.566 64.200 C 321.124 60.800,319.304 59.174,315.509 57.893 C 310.634 56.247,306.009 51.621,304.091 46.471 C 302.651 42.604,301.220 40.940,298.129 39.539 L 295.618 38.400 285.703 38.400 L 275.789 38.400 273.767 37.038 C 269.847 34.398,267.310 31.146,265.769 26.785 C 264.716 23.804,262.090 21.159,259.085 20.052 L 256.770 19.200 199.885 19.209 L 143.000 19.219 140.600 20.193 " stroke="none" fill="#ec1c64" fill-rule="evenodd"></path><path id="path1" d="M124.000 4.788 L 124.000 9.577 105.614 9.688 C 89.898 9.784,87.143 9.887,86.645 10.400 C 86.190 10.869,86.000 12.941,85.777 19.900 L 85.491 28.800 77.022 28.800 C 65.941 28.800,67.030 27.735,66.879 38.715 L 66.757 47.496 57.965 47.676 C 46.788 47.905,47.905 46.788,47.676 57.965 L 47.496 66.757 38.715 66.879 C 27.735 67.030,28.800 65.941,28.800 77.022 L 28.800 85.491 19.900 85.777 C 12.941 86.000,10.869 86.190,10.400 86.645 C 9.887 87.143,9.784 89.898,9.688 105.614 L 9.577 124.000 4.788 124.000 L 0.000 124.000 0.000 200.000 L 0.000 276.000 4.788 276.000 L 9.577 276.000 9.688 294.386 C 9.784 310.102,9.887 312.857,10.400 313.355 C 10.869 313.810,12.941 314.000,19.900 314.223 L 28.800 314.509 28.800 322.978 C 28.800 334.059,27.735 332.970,38.715 333.121 L 47.496 333.243 47.676 342.035 C 47.905 353.212,46.788 352.095,57.965 352.324 L 66.757 352.504 66.879 361.285 C 67.030 372.265,65.941 371.200,77.022 371.200 L 85.491 371.200 85.777 380.100 C 86.000 387.059,86.190 389.131,86.645 389.600 C 87.143 390.113,89.898 390.216,105.614 390.312 L 124.000 390.423 124.000 395.212 L 124.000 400.000 200.000 400.000 L 276.000 400.000 276.000 395.212 L 276.000 390.423 294.386 390.312 C 310.102 390.216,312.857 390.113,313.355 389.600 C 313.810 389.131,314.000 387.059,314.223 380.100 L 314.509 371.200 322.978 371.200 C 334.059 371.200,332.970 372.265,333.121 361.285 L 333.243 352.504 342.035 352.324 C 353.212 352.095,352.095 353.212,352.324 342.035 L 352.504 333.243 361.285 333.121 C 372.265 332.970,371.200 334.059,371.200 322.978 L 371.200 314.509 380.100 314.223 C 387.059 314.000,389.131 313.810,389.600 313.355 C 390.113 312.857,390.216 310.102,390.312 294.386 L 390.423 276.000 395.212 276.000 L 400.000 276.000 400.000 200.000 L 400.000 124.000 395.212 124.000 L 390.423 124.000 390.312 105.614 C 390.216 89.898,390.113 87.143,389.600 86.645 C 389.131 86.190,387.059 86.000,380.100 85.777 L 371.200 85.491 371.200 77.022 C 371.200 65.941,372.265 67.030,361.285 66.879 L 352.504 66.757 352.324 57.965 C 352.095 46.788,353.212 47.905,342.035 47.676 L 333.243 47.496 333.121 38.715 C 332.970 27.735,334.059 28.800,322.978 28.800 L 314.509 28.800 314.223 19.900 C 314.000 12.941,313.810 10.869,313.355 10.400 C 312.857 9.887,310.102 9.784,294.386 9.688 L 276.000 9.577 276.000 4.788 L 276.000 0.000 200.000 0.000 L 124.000 0.000 124.000 4.788 M259.085 20.052 C 262.090 21.159,264.716 23.804,265.769 26.785 C 267.310 31.146,269.847 34.398,273.767 37.038 L 275.789 38.400 285.703 38.400 L 295.618 38.400 298.129 39.539 C 301.220 40.940,302.651 42.604,304.091 46.471 C 306.009 51.621,310.634 56.247,315.509 57.893 C 319.304 59.174,321.124 60.800,322.566 64.200 C 325.756 71.717,328.283 74.244,335.800 77.434 C 339.200 78.876,340.826 80.696,342.107 84.491 C 343.753 89.366,348.379 93.991,353.529 95.909 C 357.396 97.349,359.060 98.780,360.461 101.871 L 361.600 104.382 361.600 114.297 L 361.600 124.211 362.962 126.233 C 365.602 130.153,368.854 132.690,373.215 134.231 C 376.196 135.284,378.841 137.910,379.948 140.915 L 380.800 143.230 380.800 200.000 L 380.800 256.770 379.948 259.085 C 378.841 262.090,376.196 264.716,373.215 265.769 C 368.854 267.310,365.602 269.847,362.962 273.767 L 361.600 275.789 361.600 285.703 L 361.600 295.618 360.461 298.129 C 359.060 301.220,357.396 302.651,353.529 304.091 C 348.379 306.009,343.753 310.634,342.107 315.509 C 340.826 319.304,339.200 321.124,335.800 322.566 C 328.283 325.756,325.756 328.283,322.566 335.800 C 321.124 339.200,319.304 340.826,315.509 342.107 C 310.634 343.753,306.009 348.379,304.091 353.529 C 302.651 357.396,301.220 359.060,298.129 360.461 L 295.618 361.600 285.703 361.600 L 275.789 361.600 273.767 362.962 C 269.847 365.602,267.310 368.854,265.769 373.215 C 264.716 376.196,262.090 378.841,259.085 379.948 L 256.770 380.800 200.000 380.800 L 143.230 380.800 140.915 379.948 C 137.910 378.841,135.284 376.196,134.231 373.215 C 132.690 368.854,130.153 365.602,126.233 362.962 L 124.211 361.600 114.297 361.600 L 104.382 361.600 101.871 360.461 C 98.780 359.060,97.349 357.396,95.909 353.529 C 93.991 348.379,89.366 343.753,84.491 342.107 C 80.696 340.826,78.876 339.200,77.434 335.800 C 74.244 328.283,71.717 325.756,64.200 322.566 C 60.800 321.124,59.174 319.304,57.893 315.509 C 56.247 310.634,51.621 306.009,46.471 304.091 C 42.604 302.651,40.940 301.220,39.539 298.129 L 38.400 295.618 38.400 285.703 L 38.400 275.789 37.038 273.767 C 34.398 269.847,31.146 267.310,26.785 265.769 C 23.804 264.716,21.159 262.090,20.052 259.085 L 19.200 256.770 19.200 200.000 L 19.200 143.230 20.052 140.915 C 21.159 137.910,23.804 135.284,26.785 134.231 C 31.146 132.690,34.398 130.153,37.038 126.233 L 38.400 124.211 38.400 114.297 L 38.400 104.382 39.539 101.871 C 40.940 98.780,42.604 97.349,46.471 95.909 C 51.621 93.991,56.247 89.366,57.893 84.491 C 59.174 80.696,60.800 78.876,64.200 77.434 C 71.717 74.244,74.244 71.717,77.434 64.200 C 78.876 60.800,80.696 59.174,84.491 57.893 C 89.366 56.247,93.991 51.621,95.909 46.471 C 97.349 42.604,98.780 40.940,101.871 39.539 L 104.382 38.400 114.297 38.400 L 124.211 38.400 126.233 37.038 C 130.136 34.410,132.673 31.166,134.231 26.812 C 135.298 23.829,137.640 21.395,140.600 20.193 L 143.000 19.219 199.885 19.209 L 256.770 19.200 259.085 20.052 " stroke="none" fill="#040404" fill-rule="evenodd"></path></g></svg>